<?xml version="1.0" encoding="UTF-8"?>
<svg version="1.1" xmlns="http://www.w3.org/2000/svg" width="2048" height="2048">
<path d="M0 0 C675.84 0 1351.68 0 2048 0 C2048 675.84 2048 1351.68 2048 2048 C1372.16 2048 696.32 2048 0 2048 C0 1372.16 0 696.32 0 0 Z " fill="#FEFEFE" transform="translate(0,0)"/>
<path d="M0 0 C1.15139465 0.21488571 1.15139465 0.21488571 2.3260498 0.43411255 C10.7955957 2.03682708 19.0116812 3.92915637 27.21679688 6.61987305 C29.95902343 7.48704206 32.69635706 8.17545357 35.5 8.8125 C48.98882938 12.09502098 62.34149965 16.82389112 75 22.5 C76.47651416 23.15245314 77.95308141 23.80478617 79.4296875 24.45703125 C83.74601963 26.37277671 88.04678535 28.32104918 92.34130859 30.28515625 C94.08210763 31.08058472 95.82456574 31.87239464 97.56884766 32.66015625 C125.3080746 45.22292263 151.26422299 61.4244446 175 80.5 C175.62567871 80.99709473 176.25135742 81.49418945 176.89599609 82.00634766 C178.95650359 83.64390626 181.01055278 85.28923048 183.0625 86.9375 C183.67528809 87.42686035 184.28807617 87.9162207 184.91943359 88.42041016 C195.21772475 96.77277977 204.7246436 106.0379026 214.09204102 115.40673828 C215.69204519 117.00453893 217.29993615 118.59411551 218.90820312 120.18359375 C225.3918259 126.63251321 231.31296003 133.32553456 237 140.5 C237.863164 141.52773842 238.73155286 142.55115917 239.609375 143.56640625 C291.86085416 204.49468214 322.18572507 283.19437411 330 362.5 C330.09788818 363.48194336 330.19577637 364.46388672 330.29663086 365.47558594 C331.2294907 376.38363839 331.18609668 387.30645354 331.18530273 398.24707031 C331.18748188 401.59713599 331.20567583 404.94686756 331.22460938 408.296875 C331.25925747 421.49262469 330.6575178 434.40801447 329 447.5 C328.86891846 448.57588379 328.73783691 449.65176758 328.6027832 450.76025391 C328.28242812 453.26166893 327.93373317 455.7556877 327.5625 458.25 C327.43399658 459.12301758 327.30549316 459.99603516 327.1730957 460.89550781 C324.71114427 477.32455941 321.08397159 493.40209458 317 509.5 C316.71068604 510.645896 316.71068604 510.645896 316.41552734 511.81494141 C303.20298284 562.99372643 276.15422405 611.99930305 243.21240234 652.98779297 C242.11920712 654.35131516 241.03740347 655.72395161 239.95703125 657.09765625 C237.99513919 659.58541628 236.00485828 662.04673534 234 664.5 C233.18917969 665.49773438 232.37835937 666.49546875 231.54296875 667.5234375 C225.32322263 675.04189791 218.64565932 682.03551439 211.75 688.9375 C210.49074707 690.19796143 210.49074707 690.19796143 209.20605469 691.48388672 C204.29289835 696.35336624 199.25808239 701.00701914 194 705.5 C192.87042031 706.48490525 191.74148862 707.47055431 190.61328125 708.45703125 C125.14495451 765.2582721 42.59893753 800.93220118 -95 809.5 C-96.04430176 809.48453125 -97.08860352 809.4690625 -98.16455078 809.453125 C-113.96673268 809.19508631 -129.41521546 807.02510072 -145 804.5 C-145.99064453 804.34128418 -146.98128906 804.18256836 -148.00195312 804.01904297 C-221.28585923 792.07938791 -294.45638916 758.26437188 -349 707.5 C-350.3285558 706.32789575 -351.6617635 705.16103917 -353 704 C-354.33333333 702.83333333 -355.66666667 701.66666667 -357 700.5 C-358.06734375 699.57380859 -358.06734375 699.57380859 -359.15625 698.62890625 C-364.69001625 693.74996901 -369.96181114 688.6433399 -375.1875 683.4375 C-376.18523437 682.44665405 -376.18523437 682.44665405 -377.203125 681.43579102 C-381.67158176 676.95345361 -385.87549199 672.29870052 -390 667.5 C-390.96128036 666.40540686 -391.92347045 665.31161174 -392.88671875 664.21875 C-400.38519372 655.63583949 -407.31200279 646.7251768 -414 637.5 C-414.55977539 636.73413574 -415.11955078 635.96827148 -415.69628906 635.17919922 C-424.73649052 622.76469587 -432.67965813 609.99467997 -440 596.5 C-440.49741699 595.59411133 -440.99483398 594.68822266 -441.50732422 593.75488281 C-451.57307015 575.35652291 -460.32279703 556.23322603 -467 536.33203125 C-467.99401157 533.39746478 -467.99401157 533.39746478 -469.44921875 530.24609375 C-471.35031398 525.87119091 -472.57901667 521.35037871 -473.8125 516.75 C-474.06894287 515.79754395 -474.32538574 514.84508789 -474.58959961 513.86376953 C-479.01090635 497.15147262 -482.59827851 480.24446073 -485.75 463.25 C-486.04789429 461.69321533 -486.04789429 461.69321533 -486.35180664 460.10498047 C-489.89197221 440.33766627 -490.37970213 420.34430542 -490.3125 400.3125 C-490.31034485 399.14957428 -490.3081897 397.98664856 -490.30596924 396.78848267 C-490.25469278 379.51616953 -489.84596919 362.57327863 -487 345.5 C-486.79600586 344.2517041 -486.59201172 343.0034082 -486.38183594 341.71728516 C-476.21160245 280.42703224 -454.66868872 222.61240039 -419 171.5 C-418.46729492 170.73526367 -417.93458984 169.97052734 -417.38574219 169.18261719 C-411.14684991 160.27468009 -404.6980874 151.6667702 -397.55859375 143.4609375 C-395.07456066 140.58628546 -392.68812849 137.65195948 -390.3125 134.6875 C-386.9912212 130.59839868 -383.48100003 126.86212282 -379.69921875 123.19921875 C-377.86333496 121.43264113 -377.86333496 121.43264113 -376 118.9375 C-373.69049881 116.12279543 -371.10426026 113.94367076 -368.33984375 111.5859375 C-365.61873805 109.16011038 -363.05734018 106.59516806 -360.5 104 C-356.15849186 99.61882325 -351.74604836 95.44084603 -347 91.5 C-346.18668213 90.82396729 -346.18668213 90.82396729 -345.35693359 90.13427734 C-302.98552158 55.02845807 -255.47305327 27.79284513 -202.90185547 11.10693359 C-201.22294694 10.57114841 -199.55037843 10.01558328 -197.87890625 9.45703125 C-134.33576217 -11.2176969 -65.2131876 -12.20750424 0 0 Z " fill="#010101" transform="translate(1091,502.5)"/>
<path d="M0 0 C0.81721527 -0.00133942 1.63443054 -0.00267883 2.47640991 -0.00405884 C24.26310162 0.00359126 46.43969601 1.2353192 67.80029297 5.75927734 C70.74657067 6.36492453 73.70278313 6.90814888 76.66015625 7.45703125 C92.9244007 10.55566448 108.40343799 14.81243679 124.05957031 20.18164062 C128.1995162 21.59565898 132.35759131 22.95304429 136.5168457 24.30908203 C140.13503591 25.58383339 143.57447785 27.15263335 147.04296875 28.78515625 C149.41045335 29.88802174 151.78145341 30.95466534 154.17578125 31.99609375 C180.48327542 43.44540749 205.10811937 57.13973943 228.1875 74.25 C229.05592529 74.89098633 229.05592529 74.89098633 229.94189453 75.54492188 C242.08834809 84.55896151 253.4186306 94.51325931 264.50390625 104.7890625 C266.79721352 106.89209537 269.12777116 108.92497572 271.5 110.9375 C274.81894667 113.81072036 277.6462184 116.94688989 280.48046875 120.29296875 C282.10010807 122.14980925 283.78873291 123.85397492 285.5625 125.5625 C289.23973676 129.19081565 292.46612688 133.11620373 295.6953125 137.14453125 C297.39946922 139.26804941 299.11631395 141.3655915 300.8671875 143.44921875 C341.2522375 191.99061522 367.74075122 253.29268327 378.375 315.3125 C378.60751465 316.65658936 378.60751465 316.65658936 378.84472656 318.02783203 C382.02496372 337.59079418 382.66569615 357.08035793 382.6875 376.875 C382.68912014 377.55102894 382.69074028 378.22705788 382.69240952 378.92357254 C382.74097045 402.72972248 381.10445196 425.83814726 376.57348633 449.24700928 C376.21273333 451.11905722 375.86843747 452.99425558 375.52539062 454.86962891 C373.08383287 468.11843786 369.40741902 480.8714417 365.07714844 493.61962891 C364.22119071 496.15038866 363.39349147 498.68889109 362.5703125 501.23046875 C358.12392997 514.7092792 352.32063263 527.4641612 346.1875 540.25 C345.77097168 541.12688477 345.35444336 542.00376953 344.92529297 542.90722656 C323.65643088 587.50405801 291.72345252 632.30773765 252.66015625 663.27734375 C250.47597505 665.01985797 248.38874893 666.81930942 246.3125 668.6875 C215.19373539 696.05701586 173.58257452 722.81460575 133.1875 733.25 C133.64073224 728.22526884 134.16201675 723.23165039 134.94140625 718.24609375 C136.99581007 704.51882735 137.46856637 691.0429427 137.4375 677.1875 C137.43654327 676.31858124 137.43558655 675.44966248 137.43460083 674.55441284 C137.35928521 645.14487675 135.03402118 613.7674399 122.2890625 586.76953125 C121.18682894 584.24846513 120.28025475 581.69044243 119.37988281 579.09179688 C113.40816235 562.12840477 104.2805184 546.54067421 94.546875 531.4921875 C90.72602103 525.57337997 87.0478698 519.56858692 83.38534546 513.55111694 C82.63985555 512.32742981 81.8926948 511.10475869 81.14370728 509.88320923 C75.31173275 500.37041045 69.68099449 491.0063525 66.5 480.25 C66.30083984 479.61578125 66.10167969 478.9815625 65.89648438 478.328125 C60.57613688 460.88436273 59.14256747 441.33986506 67.47265625 424.6796875 C71.50759823 417.86861552 76.81066374 413.61776133 84.375 411.25390625 C92.76705323 409.22388412 101.08729268 408.167814 109.7109375 408.00390625 C111.14519 407.97276526 112.57943455 407.94125637 114.01367188 407.90942383 C115.12633423 407.88641708 115.12633423 407.88641708 116.26147461 407.86294556 C169.87672626 407.82019934 169.87672626 407.82019934 216.1875 384.25 C217.21037109 383.28707031 217.21037109 383.28707031 218.25390625 382.3046875 C225.88880406 374.45247761 230.34465083 364.78044885 233.1875 354.3125 C234.65996833 349.08964225 236.35434713 346.61134134 240.3828125 343.1015625 C250.58356862 332.63585168 251.68784402 316.70586668 251.60717773 302.96386719 C251.16921894 285.62013563 245.83839718 269.0778183 233.5546875 256.421875 C225.74055831 249.25247594 216.68079467 244.75042356 207.1875 240.25 C207.455625 239.46625 207.72375 238.6825 208 237.875 C208.391875 236.67875 208.78375 235.4825 209.1875 234.25 C209.42637939 233.56502441 209.66525879 232.88004883 209.91137695 232.17431641 C212.22403116 225.14697942 213.24153678 218.02326044 214.12280273 210.70263672 C214.37227712 208.64743148 214.64121766 206.59544714 214.91210938 204.54296875 C217.83953955 187.7202563 217.83953955 187.7202563 214.1875 172.25 C209.53575047 170.69941682 204.87353544 171.05957361 200 171.0625 C198.89245361 171.06185547 197.78490723 171.06121094 196.64379883 171.06054688 C187.88316417 171.1151264 179.22388265 171.6615742 170.5090332 172.53833008 C165.59721125 173.0229954 160.70053667 173.37785632 155.765625 173.51171875 C154.80430664 173.53967529 153.84298828 173.56763184 152.85253906 173.59643555 C148.01829806 172.96801965 145.31138967 169.74875643 142.1875 166.25 C141.3625 165.445625 140.5375 164.64125 139.6875 163.8125 C138.32979404 162.42085139 136.97898704 161.02165418 135.66796875 159.5859375 C117.04087443 139.86313175 91.80124909 126.72633879 64.875 123.8125 C54.47564543 122.66860859 54.47564543 122.66860859 50.5 118.4375 C49.95988281 117.74011719 49.41976563 117.04273438 48.86328125 116.32421875 C45.40992713 112.04978743 40.34366169 109.10551636 35.0546875 107.671875 C29.99987544 107.23577357 26.85718966 109.31622717 23.15234375 112.3828125 C19.9122039 115.4619116 17.00355349 118.78273414 14.1875 122.25 C10.83846747 120.72072239 7.83656358 118.76723299 4.75561523 116.77099609 C-8.98294342 107.32040775 -8.98294342 107.32040775 -24.8125 105.25 C-35.56034928 110.51425271 -39.93503491 123.04941311 -44.8125 133.25 C-49.02139085 132.68675137 -52.45239566 131.68864284 -56.3125 129.9375 C-67.71672333 125.10019688 -79.29494368 121.27964391 -91.8125 123.25 C-95.93044101 125.44818915 -98.38836055 127.26427539 -100.125 131.625 C-100.43050781 132.35460937 -100.73601562 133.08421875 -101.05078125 133.8359375 C-102.61892674 138.80575243 -102.96243776 143.776633 -103.12890625 148.9609375 C-103.17080078 150.20488281 -103.21269531 151.44882812 -103.25585938 152.73046875 C-103.31483398 154.65826172 -103.31483398 154.65826172 -103.375 156.625 C-103.41818359 157.93339844 -103.46136719 159.24179687 -103.50585938 160.58984375 C-103.61162429 163.80979797 -103.71371579 167.02982531 -103.8125 170.25 C-105.31647339 170.27187378 -105.31647339 170.27187378 -106.85083008 170.29418945 C-110.62151242 170.3527866 -114.39163525 170.4300068 -118.16186523 170.51245117 C-119.78416771 170.54541499 -121.40657703 170.57353272 -123.02905273 170.59643555 C-140.56105195 170.57692723 -140.56105195 170.57692723 -155.8125 178.25 C-159.57337157 183.13913305 -159.86187316 189.00446407 -159.21777344 194.98242188 C-157.06978893 207.00078341 -152.12219204 219.01680603 -146.65698242 229.87060547 C-145.71928921 232.51262862 -145.83913984 233.66608962 -146.8125 236.25 C-147.71005005 236.43792114 -147.71005005 236.43792114 -148.62573242 236.62963867 C-173.59245539 241.10560587 -173.59245539 241.10560587 -192.8125 256.25 C-195.54824968 262.11232073 -195.80482777 267.91300941 -193.97265625 274.07421875 C-188.43883463 288.32800171 -178.39869849 300.94811272 -167.453125 311.53125 C-165.8125 313.25 -165.8125 313.25 -165.8125 315.25 C-166.9984375 315.67410156 -168.184375 316.09820313 -169.40625 316.53515625 C-195.50742373 324.57920182 -195.50742373 324.57920182 -215 342.0625 C-217.72101521 348.61494471 -218.08318082 354.48245609 -215.80859375 361.2265625 C-212.19527365 369.19439656 -206.83882847 375.0211869 -200.8125 381.25 C-199.63670557 382.61720283 -198.46906716 383.99149413 -197.3125 385.375 C-193.22255233 390.10246949 -188.52280098 394.15573436 -183.8125 398.25 C-185.25345324 401.13190647 -187.04181396 401.29206891 -190.02734375 402.421875 C-191.64672852 403.04835938 -191.64672852 403.04835938 -193.29882812 403.6875 C-195.56370479 404.54884529 -197.82930748 405.40828444 -200.09570312 406.265625 C-207.13456302 408.9930273 -213.4871525 412.12896363 -219.8125 416.25 C-220.740625 416.848125 -221.66875 417.44625 -222.625 418.0625 C-226.94777848 422.38527848 -229.4960652 427.07011583 -230.375 433.125 C-229.12979396 449.67313289 -215.90658118 464.44003022 -204.47265625 475.51171875 C-201.8125 478.25 -201.8125 478.25 -201.8125 480.25 C-202.64890015 480.31731323 -202.64890015 480.31731323 -203.50219727 480.38598633 C-227.60626696 481.3813071 -227.60626696 481.3813071 -248.46484375 491.75390625 C-253.27130589 497.70539815 -252.71141168 505.67894312 -252.10791016 512.91943359 C-250.72999954 523.79012347 -246.60422935 534.33637356 -242.73046875 544.52734375 C-241.8125 547.25 -241.8125 547.25 -241.8125 550.25 C-242.52269287 550.26981934 -243.23288574 550.28963867 -243.96459961 550.31005859 C-247.2267304 550.40615196 -250.48829328 550.5154855 -253.75 550.625 C-254.86697266 550.6559375 -255.98394531 550.686875 -257.13476562 550.71875 C-270.08302918 550.90867935 -270.08302918 550.90867935 -280.8125 557.25 C-282.5013684 560.08537512 -283.06205447 562.15026456 -283.04296875 565.4375 C-283.04103516 566.21867187 -283.03910156 566.99984375 -283.03710938 567.8046875 C-283.02486328 568.61164062 -283.01261719 569.41859375 -283 570.25 C-282.99935547 571.05695312 -282.99871094 571.86390625 -282.99804688 572.6953125 C-282.969754 576.505419 -282.74935143 579.50259428 -281.8125 583.25 C-281.8125 586.55 -281.8125 589.85 -281.8125 593.25 C-288.4125 596.55 -295.0125 599.85 -301.8125 603.25 C-304.89484486 600.16765514 -307.0481517 597.65319966 -309.421875 594.1015625 C-310.08993164 593.10366699 -310.75798828 592.10577148 -311.44628906 591.07763672 C-312.14463867 590.0207666 -312.84298828 588.96389648 -313.5625 587.875 C-314.28405273 586.78590332 -315.00560547 585.69680664 -315.74902344 584.57470703 C-320.36291174 577.56406145 -324.78892351 570.54411277 -328.76953125 563.15185547 C-329.99001231 560.92630597 -331.2605174 558.73239218 -332.53125 556.53515625 C-344.61426313 535.36766095 -353.82067409 512.58088009 -360.8125 489.25 C-361.22125286 487.91012534 -361.63011047 486.57028263 -362.0390625 485.23046875 C-365.03885931 475.32015736 -367.62347133 465.36987953 -369.8125 455.25 C-369.98136719 454.4883252 -370.15023437 453.72665039 -370.32421875 452.94189453 C-376.75663588 423.53051358 -377.36245128 394.19863264 -376.8125 364.25 C-376.7813208 362.34637695 -376.7813208 362.34637695 -376.74951172 360.40429688 C-376.37486134 340.78926812 -374.48736618 321.33525465 -369.8125 302.25 C-369.52632812 301.05246094 -369.24015625 299.85492187 -368.9453125 298.62109375 C-367.93594308 294.48768428 -366.88469207 290.36746103 -365.8125 286.25 C-365.59190918 285.39809082 -365.37131836 284.54618164 -365.14404297 283.66845703 C-349.55260448 223.82090791 -319.13114936 168.6721443 -276.84765625 123.5078125 C-274.89291875 121.41969875 -272.96289803 119.31388076 -271.05859375 117.1796875 C-264.38779062 109.72094651 -257.29758963 102.88804715 -249.8125 96.25 C-249.25691406 95.755 -248.70132813 95.26 -248.12890625 94.75 C-239.07592425 86.7214894 -229.61903754 79.33396782 -219.8125 72.25 C-219.19745605 71.80333984 -218.58241211 71.35667969 -217.94873047 70.89648438 C-191.9230806 52.12297258 -163.64409569 36.95782343 -133.8125 25.25 C-132.94818359 24.90952637 -132.08386719 24.56905273 -131.19335938 24.21826172 C-119.91322053 19.81458398 -108.5326583 16.27473029 -96.8125 13.25 C-95.48563152 12.89860951 -94.15880734 12.5470517 -92.83203125 12.1953125 C-77.36599768 8.15234861 -61.76648218 5.27472865 -45.9375 3.0625 C-44.75003174 2.89556641 -43.56256348 2.72863281 -42.33911133 2.55664062 C-28.23065189 0.65371652 -14.21708925 0.01391724 0 0 Z " fill="#FEFEFD" transform="translate(1008.8125,524.75)"/>
<path d="M0 0 C2.7981841 2.59324668 3.98073044 5.49679801 4.21948242 9.26586914 C4.24425317 12.18908328 4.25988364 15.11182897 4.26171875 18.03515625 C4.27396484 19.03482422 4.28621094 20.03449219 4.29882812 21.06445312 C4.31541741 29.57475394 3.36272035 37.55969927 0.07421875 45.47265625 C-0.25578125 46.28734375 -0.58578125 47.10203125 -0.92578125 47.94140625 C-1.92578125 49.97265625 -1.92578125 49.97265625 -3.92578125 51.97265625 C-6.0625 51.8359375 -6.0625 51.8359375 -8.61328125 51.28515625 C-9.44214844 51.11628906 -10.27101563 50.94742188 -11.125 50.7734375 C-20.03607426 48.22564081 -20.03607426 48.22564081 -22.13598633 45.26831055 C-23.21487138 43.10091451 -24.11868163 40.91957077 -24.98828125 38.66015625 C-25.31989258 37.86359619 -25.65150391 37.06703613 -25.99316406 36.24633789 C-26.99531072 33.83091368 -27.96501448 31.4048001 -28.92578125 28.97265625 C-29.7502026 26.89660919 -30.57774097 24.82254208 -31.42358398 22.75512695 C-32.1348401 21.01057567 -32.82019494 19.25552935 -33.50390625 17.5 C-34.66766922 14.85985607 -34.66766922 14.85985607 -36.91015625 14.0390625 C-39.13367052 13.84901134 -39.13367052 13.84901134 -41.92578125 14.97265625 C-44.71579828 19.5247893 -44.63764445 24.83065409 -43.92578125 29.97265625 C-42.7864214 33.49792297 -41.46698816 36.87559109 -40.01953125 40.28515625 C-38.92578125 42.97265625 -38.92578125 42.97265625 -38.92578125 44.97265625 C-41.56578125 44.97265625 -44.20578125 44.97265625 -46.92578125 44.97265625 C-47.66634766 43.58240234 -47.66634766 43.58240234 -48.421875 42.1640625 C-49.06891624 40.9543767 -49.71605679 39.74474403 -50.36328125 38.53515625 C-50.85151367 37.61766602 -50.85151367 37.61766602 -51.34960938 36.68164062 C-52.86293267 33.63549419 -52.86293267 33.63549419 -54.92578125 30.97265625 C-59.82522385 30.49567126 -59.82522385 30.49567126 -64.17578125 32.47265625 C-67.64086239 37.42277216 -68.93029868 42.86431655 -70.30078125 48.66015625 C-73.47728665 61.59423465 -78.09713648 74.52307276 -89.42578125 82.47265625 C-93.4389791 84.85999446 -97.43909517 86.68465321 -101.92578125 87.97265625 C-102.60382813 88.17761719 -103.281875 88.38257813 -103.98046875 88.59375 C-115.42616966 91.46507635 -129.65289824 91.98409776 -140.34765625 86.63671875 C-149.20231331 80.9214401 -153.90242261 73.55443961 -157.92578125 63.97265625 C-158.29316406 63.09867188 -158.66054687 62.2246875 -159.0390625 61.32421875 C-161.46422364 55.0880901 -163.09324264 48.69339453 -164.61962891 42.19042969 C-165.19475076 38.79855469 -165.19475076 38.79855469 -166.92578125 35.97265625 C-169.94755777 35.61342408 -172.95823229 35.30573627 -175.98828125 35.03515625 C-187.53306524 33.98563043 -199.01349964 32.49279659 -210.50390625 30.97265625 C-233.06028625 28.00823657 -255.52789852 25.88786984 -278.30078125 25.59765625 C-279.47801758 25.57155273 -280.65525391 25.54544922 -281.86816406 25.51855469 C-288.20086332 25.50555882 -292.18476041 25.60046685 -296.92578125 29.97265625 C-298.73423764 31.87291193 -298.73423764 31.87291193 -300.11328125 33.91015625 C-300.61472656 34.59980469 -301.11617187 35.28945313 -301.6328125 36 C-303.06350311 38.07530737 -303.06350311 38.07530737 -304.30078125 40.97265625 C-305.92578125 42.97265625 -305.92578125 42.97265625 -307.84765625 43.30859375 C-310.05078125 43.34765625 -310.05078125 43.34765625 -313.92578125 42.97265625 C-314.92578125 41.97265625 -314.92578125 41.97265625 -315.20703125 39.31640625 C-314.62912365 32.44572696 -309.63451637 25.83247619 -304.96484375 20.90234375 C-296.78792717 14.26068498 -287.06970468 13.53167155 -276.92114258 13.61962891 C-275.76359467 13.61746872 -274.60604675 13.61530853 -273.41342163 13.61308289 C-270.91503173 13.61000968 -268.41662654 13.6135608 -265.91825294 13.62309647 C-261.95204075 13.63691303 -257.98613357 13.63091488 -254.01994324 13.61825562 C-243.45726509 13.58830013 -232.89464128 13.58951687 -222.33194226 13.60850847 C-215.38230257 13.62091139 -208.43299499 13.61878457 -201.48339289 13.59012067 C-198.1936061 13.57749759 -194.9045686 13.57740895 -191.61478615 13.59480667 C-177.71994846 13.66742521 -165.79127913 13.53310794 -152.92578125 7.97265625 C-129.93671076 1.18228702 -98.21821004 2.28030655 -75.66015625 10.10546875 C-66.23038523 12.29522729 -57.99764771 10.87823185 -48.98828125 7.78515625 C-46.98196419 7.13986307 -44.97410858 6.49933648 -42.96484375 5.86328125 C-41.45905762 5.3847168 -41.45905762 5.3847168 -39.92285156 4.89648438 C-8.80287043 -4.69605461 -8.80287043 -4.69605461 0 0 Z " fill="#F7F7F6" transform="translate(1208.92578125,708.02734375)"/>
<path d="M0 0 C10.31671058 6.10814769 16.54550804 14.39184812 19.83032227 25.73022461 C20.83791374 30.08709228 20.99327218 34.31107601 20.9609375 38.76953125 C20.95594238 39.68307373 20.95094727 40.59661621 20.94580078 41.5378418 C20.63410259 53.70159498 16.3064258 63.38061082 7.83984375 72.1328125 C6.12397661 73.72979739 4.37561523 75.10596429 2.4609375 76.45703125 C1.87441406 76.87210938 1.28789063 77.2871875 0.68359375 77.71484375 C-6.98144703 82.05583714 -17.03036561 81.53643556 -25.5390625 80.45703125 C-32.80506298 78.39979015 -36.09957978 74.89651397 -41.5390625 69.45703125 C-41.8690625 81.99703125 -42.1990625 94.53703125 -42.5390625 107.45703125 C-49.4690625 107.45703125 -56.3990625 107.45703125 -63.5390625 107.45703125 C-63.5390625 71.48703125 -63.5390625 35.51703125 -63.5390625 -1.54296875 C-56.9390625 -1.54296875 -50.3390625 -1.54296875 -43.5390625 -1.54296875 C-43.5390625 2.08703125 -43.5390625 5.71703125 -43.5390625 9.45703125 C-42.8790625 9.45703125 -42.2190625 9.45703125 -41.5390625 9.45703125 C-41.28769531 8.86148437 -41.03632812 8.2659375 -40.77734375 7.65234375 C-39.37732366 5.17028921 -38.01717353 4.00509705 -35.7265625 2.33203125 C-35.06011719 1.83445312 -34.39367187 1.336875 -33.70703125 0.82421875 C-24.47122845 -5.0001614 -9.80222517 -4.26773803 0 0 Z " fill="#070707" transform="translate(637.5390625,1434.54296875)"/>
<path d="M0 0 C9.55792869 6.22182792 16.11266057 13.48136229 19.05078125 24.51953125 C21.82517358 38.21710252 21.31138751 52.08563718 14.05078125 64.26953125 C8.56088721 72.24021423 1.9331491 78.44173892 -7.76171875 80.45703125 C-10.97186831 80.78648069 -14.16092986 80.90762364 -17.38671875 80.95703125 C-18.18634033 80.97564209 -18.98596191 80.99425293 -19.80981445 81.01342773 C-28.4700178 80.92138347 -34.53125958 77.23160317 -40.76171875 71.45703125 C-41.25671875 70.46703125 -41.25671875 70.46703125 -41.76171875 69.45703125 C-42.09171875 81.99703125 -42.42171875 94.53703125 -42.76171875 107.45703125 C-49.36171875 107.45703125 -55.96171875 107.45703125 -62.76171875 107.45703125 C-62.76171875 71.81703125 -62.76171875 36.17703125 -62.76171875 -0.54296875 C-56.49171875 -0.54296875 -50.22171875 -0.54296875 -43.76171875 -0.54296875 C-43.76171875 2.75703125 -43.76171875 6.05703125 -43.76171875 9.45703125 C-43.10171875 9.45703125 -42.44171875 9.45703125 -41.76171875 9.45703125 C-41.52066406 8.86148437 -41.27960937 8.2659375 -41.03125 7.65234375 C-39.50892999 5.01990116 -37.99697884 3.96773604 -35.44921875 2.33203125 C-34.68996094 1.83445312 -33.93070313 1.336875 -33.1484375 0.82421875 C-23.86662127 -4.49269726 -9.67564062 -4.72919913 0 0 Z " fill="#030303" transform="translate(1058.76171875,1434.54296875)"/>
<path d="M0 0 C3.95238378 2.39600468 6.62886942 5.03705412 9.1875 8.875 C9.1875 9.535 9.1875 10.195 9.1875 10.875 C9.8475 10.875 10.5075 10.875 11.1875 10.875 C11.45175781 10.27816406 11.71601562 9.68132812 11.98828125 9.06640625 C13.23550658 6.78727463 14.41386062 5.49539992 16.375 3.8125 C16.92542969 3.32652344 17.47585938 2.84054687 18.04296875 2.33984375 C23.95690278 -1.69972868 29.04840367 -2.65421654 36.0625 -2.5625 C37.2539563 -2.55331543 37.2539563 -2.55331543 38.46948242 -2.54394531 C44.42188978 -2.38506779 49.16062001 -1.48402885 54.1875 1.875 C55.54875 2.74125 55.54875 2.74125 56.9375 3.625 C61.24093274 7.92843274 65.03209676 13.36705934 65.30775452 19.58952332 C65.30553391 20.68428482 65.30331329 21.77904633 65.30102539 22.90698242 C65.30091209 24.76857246 65.30091209 24.76857246 65.30079651 26.66777039 C65.29568991 28.02200358 65.29047391 29.37623637 65.28515625 30.73046875 C65.28329083 32.11623585 65.28186751 33.50200361 65.28086853 34.88777161 C65.2770531 38.5324791 65.26723113 42.17714665 65.25616455 45.82183838 C65.2459295 49.54202738 65.24136642 53.26222285 65.23632812 56.98242188 C65.22560798 64.27996822 65.20801907 71.57747342 65.1875 78.875 C58.5875 78.875 51.9875 78.875 45.1875 78.875 C45.17291748 77.26536377 45.15833496 75.65572754 45.14331055 73.99731445 C45.08532921 68.02410694 45.00809541 62.05127644 44.92504883 56.07836914 C44.89179889 53.49347046 44.86376723 50.90849916 44.84106445 48.32348633 C44.80752073 44.60726991 44.75520272 40.89171899 44.69921875 37.17578125 C44.69282883 36.02040359 44.6864389 34.86502594 44.67985535 33.67463684 C44.66006119 32.59389389 44.64026703 31.51315094 44.61987305 30.3996582 C44.60876999 29.45145706 44.59766693 28.50325592 44.58622742 27.52632141 C44.10900957 24.35308112 43.05075386 22.46877124 41.1875 19.875 C36.0073855 16.11941699 30.34553187 16.06738926 24.1875 16.875 C19.0648017 19.20349923 16.17667193 22.65844357 14.1875 27.875 C13.59999256 31.82248385 13.58266198 35.72882682 13.578125 39.71484375 C13.56158875 40.83693741 13.54505249 41.95903107 13.52801514 43.11512756 C13.47962972 46.6809746 13.45818422 50.24639539 13.4375 53.8125 C13.40933256 56.23765154 13.37940406 58.66278331 13.34765625 61.08789062 C13.27387262 67.016892 13.22423969 72.94565805 13.1875 78.875 C6.5875 78.875 -0.0125 78.875 -6.8125 78.875 C-6.82708252 77.36671631 -6.84166504 75.85843262 -6.85668945 74.30444336 C-6.9147909 68.69271489 -6.9920239 63.08138269 -7.07495117 57.4699707 C-7.10814466 55.04425502 -7.13619384 52.61846314 -7.15893555 50.19262695 C-7.19258331 46.69970316 -7.24490631 43.20747415 -7.30078125 39.71484375 C-7.30717117 38.63541 -7.3135611 37.55597626 -7.32014465 36.4438324 C-7.43537244 30.5030205 -7.91571903 26.10696378 -10.8125 20.875 C-15.35699147 16.61453924 -20.11651978 16.51884132 -26.0859375 16.60546875 C-30.04384646 16.99672336 -31.97342913 18.10517476 -34.8125 20.875 C-39.16672854 27.11610103 -39.41321847 33.1789311 -39.421875 40.59375 C-39.43841125 41.69223267 -39.45494751 42.79071533 -39.47198486 43.92248535 C-39.52029597 47.40671475 -39.5417991 50.89050817 -39.5625 54.375 C-39.59067367 56.74741757 -39.62060304 59.11981498 -39.65234375 61.4921875 C-39.72605097 67.28642243 -39.77572913 73.08041772 -39.8125 78.875 C-46.4125 78.875 -53.0125 78.875 -59.8125 78.875 C-59.8125 52.805 -59.8125 26.735 -59.8125 -0.125 C-53.5425 -0.125 -47.2725 -0.125 -40.8125 -0.125 C-40.8125 3.175 -40.8125 6.475 -40.8125 9.875 C-40.173125 9.17375 -39.53375 8.4725 -38.875 7.75 C-28.85646947 -2.29723692 -13.26341071 -6.26997597 0 0 Z " fill="#040404" transform="translate(904.8125,1434.125)"/>
<path d="M0 0 C0.87873779 -0.00636475 1.75747559 -0.01272949 2.6628418 -0.01928711 C15.20598822 0.22462377 24.87899495 5.36883759 33.48828125 14.31640625 C36.35457028 17.74736036 38.43835168 21.4538736 40.3125 25.5 C40.67859375 26.21671875 41.0446875 26.9334375 41.421875 27.671875 C44.76415791 38.28508915 43.28050195 52.71876252 38.3125 62.5 C32.20229276 73.04892922 23.03643074 79.77459029 11.41967773 83.03051758 C0.90913582 85.37228239 -11.98322414 84.38406401 -21.296875 78.98828125 C-29.42524695 73.63750386 -34.9797574 67.51655586 -38.6875 58.5 C-39.04714844 57.62988281 -39.40679688 56.75976562 -39.77734375 55.86328125 C-42.44773388 45.99544475 -42.37908657 31.70016799 -37.6875 22.5 C-32.12399466 12.83009785 -24.95703875 5.44449329 -14.4375 1.37890625 C-9.58740453 0.24216512 -4.96885663 0.03087327 0 0 Z " fill="#040404" transform="translate(780.6875,1431.5)"/>
<path d="M0 0 C5.51434246 4.34323628 8.48487948 10.17260698 10.3359375 16.83984375 C10.63244178 19.85536313 10.66009791 22.8581832 10.6796875 25.88671875 C10.6943103 26.73913147 10.70893311 27.59154419 10.72399902 28.4697876 C10.78604017 32.09836286 10.8260384 35.72709924 10.86767578 39.35595703 C10.90131147 42.01222873 10.94641792 44.668133 10.9921875 47.32421875 C11.00010315 48.56011749 11.00010315 48.56011749 11.00817871 49.82098389 C10.90033046 54.30310581 10.90033046 54.30310581 13.3359375 57.83984375 C15.3159375 58.33484375 15.3159375 58.33484375 17.3359375 58.83984375 C17.3359375 64.44984375 17.3359375 70.05984375 17.3359375 75.83984375 C14.9846875 75.92234375 12.6334375 76.00484375 10.2109375 76.08984375 C9.48245605 76.12625977 8.75397461 76.16267578 8.00341797 76.20019531 C2.93265536 76.28546444 0.23570671 74.97358686 -3.6640625 71.83984375 C-6.51507725 68.79876135 -6.6640625 68.21423255 -6.6640625 63.83984375 C-7.3240625 63.83984375 -7.9840625 63.83984375 -8.6640625 63.83984375 C-8.8909375 64.58234375 -9.1178125 65.32484375 -9.3515625 66.08984375 C-10.99253016 69.5280617 -12.47938254 70.73931016 -15.6640625 72.83984375 C-16.22351562 73.21496094 -16.78296875 73.59007812 -17.359375 73.9765625 C-25.65821453 78.61414929 -36.44650723 77.84697118 -45.58203125 76.3671875 C-51.67764338 74.61509245 -56.45227794 71.13788937 -59.984375 65.87109375 C-63.15102267 59.75924231 -63.66924468 53.60277997 -62.6640625 46.83984375 C-60.48715106 39.99124184 -56.82128551 34.61706325 -50.6640625 30.83984375 C-43.88851993 27.58800156 -37.89417615 25.70668284 -30.3671875 25.7421875 C-29.16191406 25.74541016 -27.95664063 25.74863281 -26.71484375 25.75195312 C-25.46058594 25.76033203 -24.20632813 25.76871094 -22.9140625 25.77734375 C-21.00947266 25.78411133 -21.00947266 25.78411133 -19.06640625 25.79101562 C-15.93224414 25.80279819 -12.79817709 25.81924959 -9.6640625 25.83984375 C-9.95203045 24.3890947 -10.2494142 22.94021244 -10.55078125 21.4921875 C-10.71537842 20.68515381 -10.87997559 19.87812012 -11.04956055 19.04663086 C-11.89185648 16.02179458 -13.12562983 14.65300994 -15.6640625 12.83984375 C-21.78887898 9.90637902 -28.01850098 10.02482205 -34.6640625 10.83984375 C-40.46082816 12.90453444 -45.32885362 15.47844026 -49.6640625 19.83984375 C-50.3240625 19.83984375 -50.9840625 19.83984375 -51.6640625 19.83984375 C-52.89262457 17.7662707 -54.09631596 15.68387621 -55.2890625 13.58984375 C-55.6396875 13.00332031 -55.9903125 12.41679688 -56.3515625 11.8125 C-58.81433771 7.42876012 -58.81433771 7.42876012 -58.0859375 4.57421875 C-45.42919238 -10.86422859 -15.46298308 -9.72978474 0 0 Z " fill="#040404" transform="translate(1456.6640625,1438.16015625)"/>
<path d="M0 0 C3.24799287 3.01484486 3.63150057 5.62496591 3.98828125 9.953125 C4.30586227 24.32784464 1.13740702 38.591321 -7.5 50.375 C-16.62392636 59.2915644 -28.67882046 61.61923704 -41.03637695 61.55004883 C-48.25566345 61.28014623 -53.55072134 59.39268963 -58.97265625 54.51171875 C-67.4207247 44.76727151 -70.41225947 30.04359078 -70.5 17.5625 C-70.520625 16.82902344 -70.54125 16.09554687 -70.5625 15.33984375 C-70.60180466 9.84701777 -69.67444459 5.65414767 -65.77734375 1.48828125 C-50.71604192 -9.0583306 -14.81674431 -11.68186427 0 0 Z " fill="#020202" transform="translate(1127.25,727.9375)"/>
<path d="M0 0 C21.78 0 43.56 0 66 0 C66 16 66 16 63.69140625 20.01953125 C62.19091797 21.46923828 62.19091797 21.46923828 60.5625 22.8125 C59.44910472 23.86562322 58.33845413 24.92165527 57.23046875 25.98046875 C56.6792334 26.48497559 56.12799805 26.98948242 55.56005859 27.50927734 C53.2656635 29.70169932 51.33663497 32.13509708 49.375 34.625 C46.37620089 38.36537939 43.26465138 41.92674413 40 45.4375 C34.99519197 51.00534893 30.49195461 57.01072718 26 63 C39.86 63 53.72 63 68 63 C68 68.94 68 74.88 68 81 C44.9 81 21.8 81 -2 81 C-2 65 -2 65 0.9375 61.1875 C1.58332031 60.68605469 2.22914062 60.18460938 2.89453125 59.66796875 C5.39092896 57.69030303 7.15148496 55.49881294 9.125 53 C12.78399896 48.45736524 16.54282519 44.02238403 20.375 39.625 C24.6907803 34.66610622 28.99281888 29.69686324 33.25 24.6875 C33.71583496 24.1423877 34.18166992 23.59727539 34.66162109 23.03564453 C37.08358628 20.19092702 37.08358628 20.19092702 39 17 C26.13 17 13.26 17 0 17 C0 11.39 0 5.78 0 0 Z " fill="#080908" transform="translate(1163,1433)"/>
<path d="M0 0 C6.27 0 12.54 0 19 0 C19 7.26 19 14.52 19 22 C25.6 22 32.2 22 39 22 C39 27.28 39 32.56 39 38 C32.4 38 25.8 38 19 38 C19.05107662 43.74867357 19.11404402 49.4946512 19.20751953 55.24243164 C19.23570944 57.19676996 19.25693383 59.15122186 19.27099609 61.10571289 C19.29245307 63.91872223 19.33911695 66.73036871 19.390625 69.54296875 C19.39185364 70.41398727 19.39308228 71.2850058 19.39434814 72.18241882 C19.49182669 76.23840753 19.70635694 78.50308999 21.80859375 82.06054688 C24.42983158 84.38041244 26.23112615 84.52325088 29.68359375 84.43945312 C30.36550781 84.39755859 31.04742188 84.35566406 31.75 84.3125 C32.44738281 84.28994141 33.14476562 84.26738281 33.86328125 84.24414062 C35.57644935 84.18547048 37.28850623 84.09579256 39 84 C39.90413673 87.83724172 40.10576898 91.37502274 40.0625 95.3125 C40.05347656 96.38113281 40.04445313 97.44976563 40.03515625 98.55078125 C40.02355469 99.35902344 40.01195312 100.16726563 40 101 C34.92876573 103.0252533 30.50091858 103.36602518 25.125 103.375 C24.36058594 103.39949219 23.59617187 103.42398437 22.80859375 103.44921875 C16.1398165 103.48318536 11.08322182 101.60704857 5.9765625 97.2890625 C5.53054688 96.73992187 5.08453125 96.19078125 4.625 95.625 C4.16351562 95.08101562 3.70203125 94.53703125 3.2265625 93.9765625 C-0.53129134 87.92091268 -0.2650064 81.79376838 -0.1953125 74.9140625 C-0.1924826 73.85714203 -0.18965271 72.80022156 -0.18673706 71.71127319 C-0.1755785 68.34906499 -0.15048159 64.98712714 -0.125 61.625 C-0.11496462 59.33984761 -0.10583975 57.05469102 -0.09765625 54.76953125 C-0.07565327 49.17958398 -0.04115296 43.58983777 0 38 C-4.29 38 -8.58 38 -13 38 C-13 32.39 -13 26.78 -13 21 C-8.71 21 -4.42 21 0 21 C0 14.07 0 7.14 0 0 Z " fill="#030303" transform="translate(1106,1412)"/>
<path d="M0 0 C6.93 0 13.86 0 21 0 C21.01981934 2.83182861 21.03963867 5.66365723 21.06005859 8.58129883 C21.12688857 17.92521275 21.20452905 27.26901413 21.28752708 36.61279774 C21.33752774 42.27935641 21.38385745 47.94589609 21.421875 53.61254883 C21.45868015 59.07854965 21.50502709 64.54439304 21.55806351 70.01025963 C21.57663285 72.09827609 21.59173136 74.18632634 21.60334396 76.27439308 C21.62016294 79.19326615 21.64918743 82.11177666 21.68115234 85.03051758 C21.68331253 85.89870117 21.68547272 86.76688477 21.68769836 87.66137695 C21.75413001 92.62568287 21.75413001 92.62568287 24 97 C26.19454681 97.57993699 26.19454681 97.57993699 28.625 97.6875 C30.06875 97.790625 31.5125 97.89375 33 98 C33 103.61 33 109.22 33 115 C26.35281605 117.21572798 16.74670467 117.33462643 10.3125 114.3125 C4.46946254 110.68273431 1.79093851 105.52274479 0 99 C-0.39077728 95.66004302 -0.38097473 92.36349349 -0.34057617 89.00390625 C-0.34101425 88.03713455 -0.34145233 87.07036285 -0.34190369 86.07429504 C-0.33982662 82.90348568 -0.3165466 79.73321612 -0.29296875 76.5625 C-0.28736895 74.35433236 -0.28310067 72.14616099 -0.28010559 69.93798828 C-0.2686871 64.14456779 -0.23924562 58.35137527 -0.20599365 52.55804443 C-0.17522817 46.63898807 -0.16158642 40.71989464 -0.14648438 34.80078125 C-0.11437307 23.2004049 -0.06162953 11.60025713 0 0 Z " fill="#090909" transform="translate(1348,1399)"/>
<path d="M0 0 C6.6 0 13.2 0 20 0 C20.02505615 2.83182861 20.0501123 5.66365723 20.07592773 8.58129883 C20.15930817 17.92517529 20.24800608 27.26899579 20.33933926 36.61279774 C20.39456427 42.27936151 20.44798367 47.94593044 20.49731445 53.61254883 C20.54496412 59.07849879 20.59730726 64.5443853 20.65294075 70.01025963 C20.67336155 72.09828809 20.69207509 74.18633396 20.70907402 76.27439308 C20.733124 79.19316539 20.76317792 82.11181752 20.79467773 85.03051758 C20.8004332 85.89870117 20.80618866 86.76688477 20.81211853 87.66137695 C20.85341035 91.01512633 20.93233341 93.79700023 22 97 C25.63 97.33 29.26 97.66 33 98 C33 103.61 33 109.22 33 115 C24.42449178 117.14387705 14.8690858 117.29222862 7 113 C2.66038697 109.21817785 0.29447199 104.60116573 -0.17618179 98.84543228 C-0.24587578 96.24378371 -0.24732867 93.64987633 -0.22705078 91.04736328 C-0.22734283 90.0613765 -0.22763489 89.07538971 -0.22793579 88.05952454 C-0.22654675 84.81302981 -0.21100542 81.56676695 -0.1953125 78.3203125 C-0.19158086 76.06444423 -0.1887346 73.80857433 -0.18673706 71.55270386 C-0.1791125 65.62450664 -0.15947403 59.69640791 -0.1373291 53.76824951 C-0.11684536 47.71530489 -0.10772993 41.66234431 -0.09765625 35.609375 C-0.07622709 23.73953317 -0.04105445 11.8697902 0 0 Z " fill="#040404" transform="translate(1299,1399)"/>
<path d="M0 0 C0 6.27 0 12.54 0 19 C-1.815 19.061875 -3.63 19.12375 -5.5 19.1875 C-12.92792004 19.80941312 -17.35255127 22.14354216 -22.375 27.5625 C-24.9436698 31.4155047 -26.24341964 34.09201796 -26.31884766 38.76855469 C-26.33871735 39.70922791 -26.35858704 40.64990112 -26.37905884 41.61907959 C-26.39638565 43.13021332 -26.39638565 43.13021332 -26.4140625 44.671875 C-26.43342865 45.70942932 -26.4527948 46.74698364 -26.4727478 47.815979 C-26.53248842 51.12723592 -26.5789073 54.43852771 -26.625 57.75 C-26.66318482 59.99610884 -26.70223685 62.24220312 -26.7421875 64.48828125 C-26.83818561 69.9920691 -26.9222374 75.49592551 -27 81 C-33.6 81 -40.2 81 -47 81 C-47 54.93 -47 28.86 -47 2 C-40.73 2 -34.46 2 -28 2 C-28 5.96 -28 9.92 -28 14 C-27.34 14 -26.68 14 -26 14 C-25.814375 13.29875 -25.62875 12.5975 -25.4375 11.875 C-20.3030908 1.60618161 -10.52240708 -0.38496611 0 0 Z " fill="#040404" transform="translate(727,1432)"/>
<path d="M0 0 C5.57281823 4.05501814 9.16587718 8.72069931 10.921875 15.3984375 C11.93508886 24.40004277 11.31620038 31.9369953 5.921875 39.3984375 C1.96821403 43.88207984 -2.47249956 45.94234129 -8.36328125 46.6875 C-15.03245389 47.07919793 -19.8218717 45.5431906 -25.078125 41.3984375 C-30.95686767 35.10388132 -32.4443056 28.8592457 -32.2578125 20.39453125 C-31.79124822 12.61507899 -29.41636109 7.11891765 -24.078125 1.3984375 C-16.94858624 -3.86384111 -7.71099496 -4.34900116 0 0 Z " fill="#FBFBFA" transform="translate(792.078125,1451.6015625)"/>
<path d="M0 0 C5.19112965 2.79594056 8.2031521 7.50899291 11.11328125 12.484375 C13.91308295 22.20133384 12.05073633 30.72999574 7.42578125 39.484375 C3.31727192 44.39176115 -1.80401749 46.69327961 -8.12109375 47.4453125 C-14.67108036 47.71649029 -18.87509681 46.54782469 -23.82421875 42.171875 C-30.20502937 35.33645192 -31.37378755 27.59466083 -31.1953125 18.4609375 C-30.50471351 12.34004958 -28.2900975 7.52261544 -23.81640625 3.2578125 C-16.34902953 -2.55627048 -8.83269725 -3.23407913 0 0 Z " fill="#F9F9F9" transform="translate(625.82421875,1450.828125)"/>
<path d="M0 0 C4.8531865 3.28389266 7.82396768 6.46738996 10 12 C10.46356089 15.13522041 10.50995409 18.20959848 10.5 21.375 C10.52835938 22.18710938 10.55671875 22.99921875 10.5859375 23.8359375 C10.60817679 30.77459593 8.33603224 35.55159151 3.52148438 40.52832031 C-1.57775788 45.04170611 -5.99272648 46.44166266 -12.6640625 46.2421875 C-19.30079411 45.55409827 -23.43157255 43.21701871 -27.67578125 38.109375 C-31.14433128 32.58425106 -32.53604715 27.54178141 -32.4375 21.0625 C-32.42920166 20.35883301 -32.42090332 19.65516602 -32.41235352 18.93017578 C-32.19502548 12.25874646 -30.88975209 8.10665842 -26.38671875 3.265625 C-18.6131227 -3.97364405 -9.35232604 -4.90583704 0 0 Z " fill="#FAFAFA" transform="translate(1048,1452)"/>
<path d="M0 0 C6.6 0 13.2 0 20 0 C20 26.73 20 53.46 20 81 C13.4 81 6.8 81 0 81 C0 54.27 0 27.54 0 0 Z " fill="#050505" transform="translate(1252,1433)"/>
<path d="M0 0 C1.53333984 0.02030273 1.53333984 0.02030273 3.09765625 0.04101562 C5.60732049 0.07619783 8.1158809 0.12542461 10.625 0.1875 C10.65550819 1.78503687 10.67725586 3.38274263 10.6953125 4.98046875 C10.70836426 5.87016357 10.72141602 6.7598584 10.73486328 7.67651367 C10.51024716 12.81023991 8.36393404 15.48069353 4.75 18.9375 C-1.43495719 23.39066918 -6.90784047 23.91847194 -14.375 23.1875 C-18.07756414 21.64476494 -20.53106524 19.77832033 -22.375 16.1875 C-23.24470424 9.33857914 -23.24470424 9.33857914 -20.25 5.375 C-13.44100812 0.19424531 -8.317514 -0.20927938 0 0 Z " fill="#F5F5F5" transform="translate(1436.375,1476.8125)"/>
<path d="M0 0 C3.93406826 0.02046329 6.37424603 0.20352971 9.4375 2.75 C12.94456203 6.62622645 13.15484374 8.97743396 13.09765625 14.05078125 C12.6590413 17.62579353 11.15414608 19.7081253 8.8125 22.375 C4.62146606 24.93179429 0.6004966 25.0760995 -4.1875 24.375 C-7.80597041 22.2193155 -9.59483044 20.2181809 -11.1875 16.375 C-11.71226222 12.97785509 -11.74773916 9.76939023 -11.1875 6.375 C-8.75 3.3125 -8.75 3.3125 -6.1875 1.375 C-4.47710219 -0.33539781 -2.33656044 0.08198458 0 0 Z " fill="#050505" transform="translate(1261.1875,1397.625)"/>
<path d="M0 0 C5.10118841 2.5505942 8.17671376 6.15204633 11 11 C12.1577506 14.47325181 12.06866652 17.36067448 12 21 C11.443125 20.2575 10.88625 19.515 10.3125 18.75 C5.02074389 12.45710084 -1.24018746 9.40184674 -9 7 C-9.33 5.35 -9.66 3.7 -10 2 C-6.24543433 -0.50304378 -4.45254066 -0.45280074 0 0 Z " fill="#EEEEED" transform="translate(1191,799)"/>
<path d="M0 0 C4.70588235 0.70588235 4.70588235 0.70588235 6 2 C5.71000675 8.66984476 2.90353507 14.07507419 0 20 C-0.33 20 -0.66 20 -1 20 C-1.02888514 16.85418577 -1.04675923 13.70840531 -1.0625 10.5625 C-1.07087891 9.66466797 -1.07925781 8.76683594 -1.08789062 7.84179688 C-1.09111328 6.98779297 -1.09433594 6.13378906 -1.09765625 5.25390625 C-1.10551147 4.06776733 -1.10551147 4.06776733 -1.11352539 2.85766602 C-1 1 -1 1 0 0 Z " fill="#EDEDED" transform="translate(1237,792)"/>
</svg>
